# xmcd
#
# Track frame offsets:
#	150
#	2465
#	16471
#	28934
#	51786
#	64586
#	72161
#	95076
#	99781
#	124378
#	141699
#	162871
#	179218
#
# Disc length: 2616 seconds
#
# Revision: 1
# Processed by: cddbd v1.5.2PL0 Copyright (c) Steve Scherf et al.
# Submitted via: audiograbber 1.83.01
#
DISCID=b80a360d
DTITLE=Xave Brown - Whalebone Beach
DYEAR=2010
DGENRE=Blues
TTITLE0=Intro
TTITLE1=Last Petal
TTITLE2=Strangers
TTITLE3=Winter Wind
TTITLE4=Call of The Wild
TTITLE5=Tidedance
TTITLE6=Splinter
TTITLE7=Daylight
TTITLE8=Little Lives
TTITLE9=Ice Witch
TTITLE10=Shelter Island
TTITLE11=Whalebone Beach
TTITLE12=Fell to The Floor
EXTD=Xave Brown is an Artist from Perth Western Australia
EXTT0=
EXTT1=
EXTT2=
EXTT3=
EXTT4=
EXTT5=
EXTT6=
EXTT7=
EXTT8=
EXTT9=
EXTT10=
EXTT11=
EXTT12=
PLAYORDER=
